<?xml version="1.0" encoding="UTF-8" standalone="no"?><!-- Generator: Gravit.io --><svg xmlns="http://www.w3.org/2000/svg" xmlns:xlink="http://www.w3.org/1999/xlink" style="isolation:isolate" viewBox="0 0 1080 1080" width="1080pt" height="1080pt"><defs><clipPath id="_clipPath_6iuoCjbERNycnu1tJ1664jT7Iob9MNkQ"><rect width="1080" height="1080"/></clipPath></defs><g clip-path="url(#_clipPath_6iuoCjbERNycnu1tJ1664jT7Iob9MNkQ)"><linearGradient id="_lgradient_18" x1="0.3242677824267775" y1="0.1492227979274614" x2="0.684100418410041" y2="1.6507772020725389" gradientTransform="matrix(0,358.5,-965,0,1236,494.75)" gradientUnits="userSpaceOnUse"><stop offset="0%" stop-opacity="1" style="stop-color:rgb(198,198,198)"/><stop offset="100%" stop-opacity="1" style="stop-color:rgb(0,0,0)"/></linearGradient><path d=" M 339.796 767.918 L 1065.631 849.449 C 1075.01 851.94 1084.73 853.25 1094.69 853.25 C 1172.681 853.25 1236 772.931 1236 674 C 1236 575.069 1172.681 494.75 1094.69 494.75 C 1083.473 494.75 1072.56 496.411 1062.095 499.55 L 339.796 594.035 L 339.796 594.035 L 339.796 594.035 C 301.826 594.035 271 632.992 271 680.977 C 271 728.961 301.826 767.918 339.796 767.918 C 339.796 767.918 339.796 767.918 339.796 767.918 Z " fill-rule="evenodd" fill="url(#_lgradient_18)"/><g><linearGradient id="_lgradient_19" x1="0.23141342178998575" y1="0.4952633716482375" x2="2.4360615845971867" y2="0.5078817873570316" gradientTransform="matrix(357.427,0,0,475.496,109.287,292.504)" gradientUnits="userSpaceOnUse"><stop offset="0%" stop-opacity="1" style="stop-color:rgb(215,162,77)"/><stop offset="100%" stop-opacity="1" style="stop-color:rgb(0,0,0)"/></linearGradient><path d=" M 381.918 728.286 L 466.713 292.504 L 109.287 292.504 L 208.035 728.286 L 208.035 728.286 L 208.035 728.286 C 208.035 750.205 246.992 768 294.977 768 C 342.961 768 381.918 750.205 381.918 728.286 L 381.918 728.286 Z " fill-rule="evenodd" fill="url(#_lgradient_19)"/><linearGradient id="_lgradient_20" x1="0.21548117154811675" y1="0.31302760038170824" x2="1.2977684797768476" y2="1.6492237392644804" gradientTransform="matrix(358.5,0,0,163.15,108.75,210.93)" gradientUnits="userSpaceOnUse"><stop offset="0%" stop-opacity="1" style="stop-color:rgb(123,93,43)"/><stop offset="100%" stop-opacity="1" style="stop-color:rgb(0,0,0)"/></linearGradient><ellipse vector-effect="non-scaling-stroke" cx="288.0000000000001" cy="292.5044910179639" rx="179.25" ry="81.57485029940119" fill="url(#_lgradient_20)"/><clipPath id="_clipPath_4UXLrJgtOAZxxoEKdNgMwjy3OoGzYLzN"><ellipse vector-effect="non-scaling-stroke" cx="288.0000000000001" cy="292.5044910179639" rx="179.25" ry="81.57485029940119" fill="url(#_lgradient_20)"/></clipPath><g clip-path="url(#_clipPath_4UXLrJgtOAZxxoEKdNgMwjy3OoGzYLzN)"><linearGradient id="_lgradient_21" x1="0.8599300461065338" y1="0.8956757864686071" x2="-0.19921309142976518" y2="-0.833596099211088" gradientTransform="matrix(-251.055,3.894,-2.369,-152.737,414.012,435.455)" gradientUnits="userSpaceOnUse"><stop offset="0%" stop-opacity="1" style="stop-color:rgb(238,238,105)"/><stop offset="100%" stop-opacity="1" style="stop-color:rgb(0,0,0)"/></linearGradient><path d=" M 162.958 439.348 C 162.953 439.096 162.949 438.843 162.945 438.591 C 161.644 354.712 216.835 285.739 286.115 284.664 C 355.396 283.59 412.699 350.817 414 434.697 L 288.472 436.644 L 162.958 439.348 Z " fill="url(#_lgradient_21)"/><path d=" M 216.618 331.304 L 216.618 331.304 L 216.618 331.304 C 201.545 346.377 184.828 341.897 179.311 321.307 L 179.311 321.307 L 179.311 321.307 C 173.794 300.717 186.031 288.479 206.621 293.996 L 206.621 293.996 L 206.621 293.996 C 227.212 299.514 231.691 316.23 216.618 331.304 Z " fill="rgb(215,215,95)"/><path d=" M 342.806 321.042 L 339.796 319.304 L 336.785 317.566 C 319.986 307.867 319.986 292.118 336.785 282.419 L 339.796 280.681 L 342.806 278.943 C 359.605 269.244 373.244 277.119 373.244 296.517 L 373.244 299.993 L 373.244 303.469 C 373.244 322.867 359.605 330.742 342.806 321.042 Z " fill="rgb(215,215,95)"/><circle vector-effect="non-scaling-stroke" cx="240.92861244486744" cy="345.6142532777141" r="15.750000000000014" fill="rgb(235,235,235)"/><circle vector-effect="non-scaling-stroke" cx="316.00000000000006" cy="345.6142532777141" r="15.75" fill="rgb(235,235,235)"/><path d=" M 309.007 345.614 C 309.007 351.89 314.103 356.986 320.379 356.986 C 326.655 356.986 331.75 351.89 331.75 345.614 C 331.75 339.338 326.655 334.243 320.379 334.243 C 314.103 334.243 309.007 339.338 309.007 345.614 Z " fill="rgb(0,0,0)"/><path d=" M 234.581 345.614 C 234.581 351.89 239.677 356.986 245.953 356.986 C 252.229 356.986 257.324 351.89 257.324 345.614 C 257.324 339.338 252.229 334.243 245.953 334.243 C 239.677 334.243 234.581 339.338 234.581 345.614 Z " fill="rgb(0,0,0)"/></g></g><linearGradient id="_lgradient_22" x1="-2.248310456609366" y1="0.5584707887322387" x2="1.6430027089225128" y2="0.6240975575181549" gradientTransform="matrix(363.887,0,0,137.139,521.132,346.412)" gradientUnits="userSpaceOnUse"><stop offset="0%" stop-opacity="1" style="stop-color:rgb(255,255,255)"/><stop offset="100%" stop-opacity="1" style="stop-color:rgb(0,0,0)"/></linearGradient><path d=" M 679.693 346.412 L 679.693 362.066 L 654.284 362.066 L 654.284 454.551 C 654.284 470.556 645.526 483.551 634.739 483.551 L 634.739 483.551 L 634.739 447.172 L 634.739 447.172 Q 628.387 450.92 619.591 454.227 L 619.591 454.227 L 619.591 454.227 Q 610.796 457.534 598.58 457.534 L 598.58 457.534 L 598.58 457.534 Q 579.768 457.534 567.674 448.054 L 567.674 448.054 L 567.674 448.054 Q 555.581 438.573 555.581 422.919 L 555.581 422.919 L 555.581 422.919 Q 555.581 416.525 558.635 411.013 L 558.635 411.013 L 558.635 411.013 Q 561.688 405.501 566.33 401.753 L 566.33 401.753 L 566.33 401.753 C 546.509 401.996 530.416 395.08 530.416 386.319 L 530.416 386.319 L 602.001 386.319 L 602.001 386.319 Q 606.398 386.319 610.674 386.429 L 610.674 386.429 L 610.674 386.429 Q 614.949 386.539 616.171 386.539 L 616.171 386.539 L 614.461 401.973 L 606.643 401.973 L 606.643 401.973 Q 592.472 401.973 583.799 407.375 L 583.799 407.375 L 583.799 407.375 Q 575.126 412.777 575.126 423.139 L 575.126 423.139 L 575.126 423.139 Q 575.126 432.62 582.211 437.36 L 582.211 437.36 L 582.211 437.36 Q 589.296 442.101 598.58 442.101 L 598.58 442.101 L 598.58 442.101 Q 610.552 442.101 619.347 437.36 L 619.347 437.36 L 619.347 437.36 Q 628.143 432.62 634.739 426.226 L 634.739 426.226 L 634.739 362.066 C 619.631 362.066 605.682 362.066 605.682 362.066 Q 592.892 362.066 580.103 362.066 C 580.103 362.066 568.472 362.066 558 362.066 C 543.483 362.066 531.194 362.066 521.132 362.066 L 521.132 362.066 C 521.132 353.426 534.574 346.412 551.132 346.412 L 679.693 346.412 Z  M 742.615 362.066 L 717.45 362.066 L 717.45 449.551 C 717.45 468.316 708.583 483.551 697.66 483.551 L 697.66 483.551 L 697.66 362.066 L 675.916 362.066 L 675.916 346.412 L 742.615 346.412 L 742.615 362.066 Z  M 739.651 346.412 L 874.019 346.412 C 880.09 346.412 885.019 351.341 885.019 357.412 L 885.019 362.066 L 859.61 362.066 L 859.61 456.551 C 859.61 471.453 850.743 483.551 839.821 483.551 L 839.821 483.551 L 839.821 444.085 L 839.821 444.085 Q 832.98 448.054 823.452 451.25 L 823.452 451.25 L 823.452 451.25 Q 813.923 454.447 801.463 454.447 L 801.463 454.447 L 801.463 454.447 Q 779.475 454.447 765.915 441.108 L 765.915 441.108 L 765.915 441.108 Q 752.356 427.769 748.935 405.721 L 748.935 405.721 L 748.935 405.721 Q 764.083 402.855 771.412 397.674 L 771.412 397.674 L 771.412 397.674 Q 778.742 392.492 778.742 382.791 L 778.742 382.791 L 778.742 382.791 Q 778.742 376.618 775.932 371.326 L 775.932 371.326 L 775.932 371.326 Q 773.122 366.035 769.702 362.066 L 769.702 362.066 L 739.651 362.066 L 739.651 346.412 Z  M 771.168 417.186 L 771.168 417.186 L 771.168 417.186 Q 775.81 427.99 783.384 433.392 L 783.384 433.392 L 783.384 433.392 Q 790.958 438.793 802.929 438.793 L 802.929 438.793 L 802.929 438.793 Q 815.145 438.793 824.185 434.163 L 824.185 434.163 L 824.185 434.163 Q 833.224 429.533 839.821 423.139 L 839.821 423.139 L 839.821 362.066 L 791.202 362.066 L 791.202 362.066 Q 798.287 373.531 798.287 385.437 L 798.287 385.437 L 798.287 385.437 Q 798.287 409.249 771.168 417.186 Z " fill="url(#_lgradient_22)"/><g style="mix-blend-mode:normal;" opacity="0.23"><path d="M 169.831 397.265 L 169.831 397.265 C 176.227 395.707 183.03 401.058 185.014 409.206 L 245.406 657.237 C 247.389 665.385 243.808 673.264 237.412 674.822 L 237.412 674.822 C 231.016 676.379 224.213 671.028 222.229 662.88 L 161.837 414.849 C 159.854 406.701 163.435 398.822 169.831 397.265 Z" style="stroke:none;fill:#EBEBEB;stroke-miterlimit:10;"/></g><linearGradient id="_lgradient_23" x1="1.2458500902961511" y1="0.5326450095905574" x2="-0.7311623393792337" y2="0.44766740185395315" gradientTransform="matrix(116.981,0,0,107.785,900.51,361.089)" gradientUnits="userSpaceOnUse"><stop offset="0%" stop-opacity="1" style="stop-color:rgb(255,0,0)"/><stop offset="98.26086956521739%" stop-opacity="1" style="stop-color:rgb(255,255,255)"/></linearGradient><path d=" M 908.977 411.032 C 903.743 405.733 900.51 398.453 900.51 390.423 C 900.51 374.233 913.654 361.089 929.844 361.089 C 945.015 361.089 957.512 372.632 959 387.414 C 960.488 372.632 972.985 361.089 988.156 361.089 C 1004.346 361.089 1017.49 374.233 1017.49 390.423 C 1017.49 397.332 1015.097 403.685 1011.095 408.7 L 1011.101 408.7 L 1011.013 408.802 C 1010.576 409.344 1010.121 409.87 1009.648 410.38 L 985.066 438.787 L 959.03 468.874 L 932.995 438.787 L 908.977 411.032 L 908.977 411.032 Z " fill-rule="evenodd" fill="url(#_lgradient_23)"/><path d=" M 223.737 334.079 C 223.981 326.693 229.436 320.277 237.003 319.078 C 244.571 317.88 251.741 322.295 254.256 329.244 C 250.402 326.42 244.456 325.112 238.118 326.116 C 231.78 327.12 226.53 330.202 223.737 334.079 Z " fill-rule="evenodd" fill="rgb(0,0,0)"/><path d=" M 300.101 327.74 C 301.497 320.483 307.889 315 315.55 315 C 323.212 315 329.604 320.483 331 327.74 C 327.635 324.348 321.968 322.125 315.55 322.125 C 309.133 322.125 303.465 324.348 300.101 327.74 Z " fill-rule="evenodd" fill="rgb(0,0,0)"/></g></svg>