<?xml version="1.0" encoding="UTF-8" standalone="no"?><!-- Generator: Gravit.io --><svg xmlns="http://www.w3.org/2000/svg" xmlns:xlink="http://www.w3.org/1999/xlink" style="isolation:isolate" viewBox="0 0 1024 768" width="1024pt" height="768pt"><defs><clipPath id="_clipPath_GjYPZZX2mtdDzskVRhHjZK0AzVe9APxM"><rect width="1024" height="768"/></clipPath></defs><g clip-path="url(#_clipPath_GjYPZZX2mtdDzskVRhHjZK0AzVe9APxM)"><rect width="1024" height="768" style="fill:rgb(0,0,0)" fill-opacity="0"/><g><defs><filter id="fhaYc251jKyYSyxZOP4SfzlPfEt17ykv" x="-200%" y="-200%" width="400%" height="400%" filterUnits="objectBoundingBox" color-interpolation-filters="sRGB"><feGaussianBlur xmlns="http://www.w3.org/2000/svg" in="SourceGraphic" stdDeviation="21.46804531419514"/><feOffset xmlns="http://www.w3.org/2000/svg" dx="0" dy="0" result="pf_100_offsetBlur"/><feFlood xmlns="http://www.w3.org/2000/svg" flood-color="#888888" flood-opacity="0.3"/><feComposite xmlns="http://www.w3.org/2000/svg" in2="pf_100_offsetBlur" operator="in" result="pf_100_dropShadow"/><feBlend xmlns="http://www.w3.org/2000/svg" in="SourceGraphic" in2="pf_100_dropShadow" mode="normal"/></filter></defs><g filter="url(#fhaYc251jKyYSyxZOP4SfzlPfEt17ykv)"><path d="M 190.844 30 L 823.156 30 C 840.179 30 854 43.821 854 60.844 L 854 693.156 C 854 710.179 840.179 724 823.156 724 L 190.844 724 C 173.821 724 160 710.179 160 693.156 L 160 60.844 C 160 43.821 173.821 30 190.844 30 Z" style="stroke:none;fill:#FFFFFF;stroke-miterlimit:10;"/><clipPath id="_clipPath_qy0wEpYSBI3dqPoZstW013qqFLirI1Mk"><path d="M 190.844 30 L 823.156 30 C 840.179 30 854 43.821 854 60.844 L 854 693.156 C 854 710.179 840.179 724 823.156 724 L 190.844 724 C 173.821 724 160 710.179 160 693.156 L 160 60.844 C 160 43.821 173.821 30 190.844 30 Z" style="stroke:none;fill:#FFFFFF;stroke-miterlimit:10;"/></clipPath><g clip-path="url(#_clipPath_qy0wEpYSBI3dqPoZstW013qqFLirI1Mk)"><rect x="78.353" y="5.052" width="839.15" height="124.739" transform="matrix(1,0,0,1,0,0)" fill="rgb(110,113,255)"/></g></g><defs><linearGradient id="_lgradient_0" x1="0" y1="0.5" x2="2.447962793748975" y2="0.6276245368464326"><stop offset="0%" style="stop-color:#DBD8D8"/><stop offset="100%" style="stop-color:#000000"/></linearGradient></defs><path d="M 227.09 381.536 L 602.982 381.536 C 610.091 381.536 615.863 385.093 615.863 389.474 L 615.863 389.474 C 615.863 393.855 610.091 397.412 602.982 397.412 L 227.09 397.412 C 219.981 397.412 214.209 393.855 214.209 389.474 L 214.209 389.474 C 214.209 385.093 219.981 381.536 227.09 381.536 Z" style="stroke:none;fill:url(#_lgradient_0);stroke-miterlimit:10;"/><path d="M 221.164 422.359 L 592.12 422.359 C 595.181 422.359 597.665 420.581 597.665 418.391 L 597.665 418.391 C 597.665 416.2 595.181 414.422 592.12 414.422 L 221.164 414.422 C 218.104 414.422 215.619 416.2 215.619 418.391 L 215.619 418.391 C 215.619 420.581 218.104 422.359 221.164 422.359 Z" style="stroke:none;fill:#EAEAEA;stroke-miterlimit:10;"/><path d="M 804.694 234.695 L 665.736 234.695 C 664.183 234.695 662.923 233.486 662.923 231.997 L 662.923 231.997 C 662.923 230.507 664.183 229.298 665.736 229.298 L 804.694 229.298 C 806.246 229.298 807.507 230.507 807.507 231.997 L 807.507 231.997 C 807.507 233.486 806.246 234.695 804.694 234.695 Z" style="stroke:none;fill:#EAEAEA;stroke-miterlimit:10;"/><path d="M 219.754 665.033 L 590.71 665.033 C 593.77 665.033 596.255 663.254 596.255 661.064 L 596.255 661.064 C 596.255 658.873 593.77 657.095 590.71 657.095 L 219.754 657.095 C 216.694 657.095 214.209 658.873 214.209 661.064 L 214.209 661.064 C 214.209 663.254 216.694 665.033 219.754 665.033 Z" style="stroke:none;fill:#EAEAEA;stroke-miterlimit:10;"/><path d="M 220.326 435.967 L 486.209 435.967 C 488.807 435.967 490.916 434.189 490.916 431.998 L 490.916 431.998 C 490.916 429.808 488.807 428.029 486.209 428.029 L 220.326 428.029 C 217.728 428.029 215.619 429.808 215.619 431.998 L 215.619 431.998 C 215.619 434.189 217.728 435.967 220.326 435.967 Z" style="stroke:none;fill:#EAEAEA;stroke-miterlimit:10;"/><path d="M 805.119 243.946 L 705.709 243.946 C 704.392 243.946 703.322 242.876 703.322 241.559 L 703.322 240.937 C 703.322 239.619 704.392 238.55 705.709 238.55 L 805.119 238.55 C 806.437 238.55 807.507 239.619 807.507 240.937 L 807.507 241.559 C 807.507 242.876 806.437 243.946 805.119 243.946 Z" style="stroke:none;fill:#EAEAEA;stroke-miterlimit:10;"/><path d="M 218.916 678.641 L 484.799 678.641 C 487.397 678.641 489.506 676.862 489.506 674.672 L 489.506 674.672 C 489.506 672.481 487.397 670.703 484.799 670.703 L 218.916 670.703 C 216.318 670.703 214.209 672.481 214.209 674.672 L 214.209 674.672 C 214.209 676.862 216.318 678.641 218.916 678.641 Z" style="stroke:none;fill:#EAEAEA;stroke-miterlimit:10;"/><path d="M 220.591 449.575 L 517.85 449.575 C 520.594 449.575 522.822 447.797 522.822 445.606 L 522.822 445.606 C 522.822 443.416 520.594 441.637 517.85 441.637 L 220.591 441.637 C 217.847 441.637 215.619 443.416 215.619 445.606 L 215.619 445.606 C 215.619 447.797 217.847 449.575 220.591 449.575 Z" style="stroke:none;fill:#EAEAEA;stroke-miterlimit:10;"/><path d="M 804.985 253.198 L 693.769 253.198 C 692.377 253.198 691.247 252.068 691.247 250.676 L 691.247 250.323 C 691.247 248.931 692.377 247.801 693.769 247.801 L 804.985 247.801 C 806.376 247.801 807.507 248.931 807.507 250.323 L 807.507 250.676 C 807.507 252.068 806.376 253.198 804.985 253.198 Z" style="stroke:none;fill:#EAEAEA;stroke-miterlimit:10;"/><path d="M 219.181 692.248 L 516.44 692.248 C 519.184 692.248 521.412 690.47 521.412 688.279 L 521.412 688.279 C 521.412 686.089 519.184 684.31 516.44 684.31 L 219.181 684.31 C 216.437 684.31 214.209 686.089 214.209 688.279 L 214.209 688.279 C 214.209 690.47 216.437 692.248 219.181 692.248 Z" style="stroke:none;fill:#EAEAEA;stroke-miterlimit:10;"/><path d="M 369.617 511.948 L 591.944 511.948 C 594.323 511.948 596.255 510.169 596.255 507.979 L 596.255 507.979 C 596.255 505.788 594.323 504.01 591.944 504.01 L 369.617 504.01 C 367.237 504.01 365.306 505.788 365.306 507.979 L 365.306 507.979 C 365.306 510.169 367.237 511.948 369.617 511.948 Z" style="stroke:none;fill:#EAEAEA;stroke-miterlimit:10;"/><path d="M 369.617 573.18 L 591.944 573.18 C 594.323 573.18 596.255 571.401 596.255 569.211 L 596.255 569.211 C 596.255 567.02 594.323 565.242 591.944 565.242 L 369.617 565.242 C 367.237 565.242 365.306 567.02 365.306 569.211 L 365.306 569.211 C 365.306 571.401 367.237 573.18 369.617 573.18 Z" style="stroke:none;fill:#EAEAEA;stroke-miterlimit:10;"/><path d="M 220.798 464.317 L 543.725 464.317 C 546.583 464.317 548.904 462.539 548.904 460.348 L 548.904 460.348 C 548.904 458.158 546.583 456.379 543.725 456.379 L 220.798 456.379 C 217.94 456.379 215.619 458.158 215.619 460.348 L 215.619 460.348 C 215.619 462.539 217.94 464.317 220.798 464.317 Z" style="stroke:none;fill:#EAEAEA;stroke-miterlimit:10;"/><path d="M 804.88 263.22 L 684.004 263.22 C 682.554 263.22 681.377 262.043 681.377 260.593 L 681.377 260.45 C 681.377 259 682.554 257.823 684.004 257.823 L 804.88 257.823 C 806.329 257.823 807.507 259 807.507 260.45 L 807.507 260.593 C 807.507 262.043 806.329 263.22 804.88 263.22 Z" style="stroke:none;fill:#EAEAEA;stroke-miterlimit:10;"/><path d="M 219.388 706.99 L 542.315 706.99 C 545.173 706.99 547.494 705.212 547.494 703.021 L 547.494 703.021 C 547.494 700.831 545.173 699.052 542.315 699.052 L 219.388 699.052 C 216.53 699.052 214.209 700.831 214.209 703.021 L 214.209 703.021 C 214.209 705.212 216.53 706.99 219.388 706.99 Z" style="stroke:none;fill:#EAEAEA;stroke-miterlimit:10;"/><path d="M 369.796 526.689 L 611.372 526.689 C 613.851 526.689 615.863 524.911 615.863 522.72 L 615.863 522.72 C 615.863 520.53 613.851 518.751 611.372 518.751 L 369.796 518.751 C 367.318 518.751 365.306 520.53 365.306 522.72 L 365.306 522.72 C 365.306 524.911 367.318 526.689 369.796 526.689 Z" style="stroke:none;fill:#EAEAEA;stroke-miterlimit:10;"/><path d="M 369.796 587.922 L 611.372 587.922 C 613.851 587.922 615.863 586.143 615.863 583.953 L 615.863 583.953 C 615.863 581.762 613.851 579.984 611.372 579.984 L 369.796 579.984 C 367.318 579.984 365.306 581.762 365.306 583.953 L 365.306 583.953 C 365.306 586.143 367.318 587.922 369.796 587.922 Z" style="stroke:none;fill:#EAEAEA;stroke-miterlimit:10;"/><path d="M 220.442 478.492 L 499.855 478.492 C 502.517 478.492 504.678 476.713 504.678 474.523 L 504.678 474.523 C 504.678 472.332 502.517 470.554 499.855 470.554 L 220.442 470.554 C 217.78 470.554 215.619 472.332 215.619 474.523 L 215.619 474.523 C 215.619 476.713 217.78 478.492 220.442 478.492 Z" style="stroke:none;fill:#EAEAEA;stroke-miterlimit:10;"/><path d="M 805.06 272.857 L 700.56 272.857 C 699.21 272.857 698.114 271.761 698.114 270.41 L 698.114 269.907 C 698.114 268.556 699.21 267.46 700.56 267.46 L 805.06 267.46 C 806.41 267.46 807.507 268.556 807.507 269.907 L 807.507 270.41 C 807.507 271.761 806.41 272.857 805.06 272.857 Z" style="stroke:none;fill:#EAEAEA;stroke-miterlimit:10;"/><path d="M 369.487 540.864 L 578.433 540.864 C 580.741 540.864 582.615 539.086 582.615 536.895 L 582.615 536.895 C 582.615 534.705 580.741 532.926 578.433 532.926 L 369.487 532.926 C 367.179 532.926 365.306 534.705 365.306 536.895 L 365.306 536.895 C 365.306 539.086 367.179 540.864 369.487 540.864 Z" style="stroke:none;fill:#EAEAEA;stroke-miterlimit:10;"/><path d="M 369.487 602.096 L 578.433 602.096 C 580.741 602.096 582.615 600.318 582.615 598.127 L 582.615 598.127 C 582.615 595.937 580.741 594.158 578.433 594.158 L 369.487 594.158 C 367.179 594.158 365.306 595.937 365.306 598.127 L 365.306 598.127 C 365.306 600.318 367.179 602.096 369.487 602.096 Z" style="stroke:none;fill:#EAEAEA;stroke-miterlimit:10;"/><path d="M 369.487 631.013 L 578.433 631.013 C 580.741 631.013 582.615 629.235 582.615 627.044 L 582.615 627.044 C 582.615 624.854 580.741 623.075 578.433 623.075 L 369.487 623.075 C 367.179 623.075 365.306 624.854 365.306 627.044 L 365.306 627.044 C 365.306 629.235 367.179 631.013 369.487 631.013 Z" style="stroke:none;fill:#EAEAEA;stroke-miterlimit:10;"/><path d="M 220.591 493.234 L 517.85 493.234 C 520.594 493.234 522.822 491.455 522.822 489.265 L 522.822 489.265 C 522.822 487.074 520.594 485.296 517.85 485.296 L 220.591 485.296 C 217.847 485.296 215.619 487.074 215.619 489.265 L 215.619 489.265 C 215.619 491.455 217.847 493.234 220.591 493.234 Z" style="stroke:none;fill:#EAEAEA;stroke-miterlimit:10;"/><path d="M 804.985 282.879 L 693.769 282.879 C 692.377 282.879 691.247 281.749 691.247 280.357 L 691.247 280.004 C 691.247 278.613 692.377 277.482 693.769 277.482 L 804.985 277.482 C 806.376 277.482 807.507 278.613 807.507 280.004 L 807.507 280.357 C 807.507 281.749 806.376 282.879 804.985 282.879 Z" style="stroke:none;fill:#EAEAEA;stroke-miterlimit:10;"/><path d="M 369.617 555.606 L 591.944 555.606 C 594.323 555.606 596.255 553.828 596.255 551.637 L 596.255 551.637 C 596.255 549.447 594.323 547.668 591.944 547.668 L 369.617 547.668 C 367.237 547.668 365.306 549.447 365.306 551.637 L 365.306 551.637 C 365.306 553.828 367.237 555.606 369.617 555.606 Z" style="stroke:none;fill:#EAEAEA;stroke-miterlimit:10;"/><path d="M 369.617 616.838 L 591.944 616.838 C 594.323 616.838 596.255 615.06 596.255 612.869 L 596.255 612.869 C 596.255 610.679 594.323 608.9 591.944 608.9 L 369.617 608.9 C 367.237 608.9 365.306 610.679 365.306 612.869 L 365.306 612.869 C 365.306 615.06 367.237 616.838 369.617 616.838 Z" style="stroke:none;fill:#EAEAEA;stroke-miterlimit:10;"/><path d="M 369.617 645.755 L 591.944 645.755 C 594.323 645.755 596.255 643.976 596.255 641.786 L 596.255 641.786 C 596.255 639.595 594.323 637.817 591.944 637.817 L 369.617 637.817 C 367.237 637.817 365.306 639.595 365.306 641.786 L 365.306 641.786 C 365.306 643.976 367.237 645.755 369.617 645.755 Z" style="stroke:none;fill:#EAEAEA;stroke-miterlimit:10;"/><circle vector-effect="non-scaling-stroke" cx="221.2352941176472" cy="83.2973856209151" r="23.813725490196077" fill="rgb(235,235,235)"/><path d="M 269.43 71.391 L 382.967 71.391 C 389.539 71.391 394.874 76.726 394.874 83.297 L 394.874 83.297 C 394.874 89.869 389.539 95.204 382.967 95.204 L 269.43 95.204 C 262.858 95.204 257.523 89.869 257.523 83.297 L 257.523 83.297 C 257.523 76.726 262.858 71.391 269.43 71.391 Z" style="stroke:none;fill:#EBEBEB;stroke-miterlimit:10;"/><rect x="793.899" y="74.494" width="26.082" height="4.834" transform="matrix(1,0,0,1,0,0)" fill="rgb(235,235,235)"/><rect x="793.899" y="82.876" width="26.082" height="5.158" transform="matrix(1,0,0,1,0,0)" fill="rgb(235,235,235)"/><rect x="793.899" y="90.613" width="26.082" height="5.158" transform="matrix(1,0,0,1,0,0)" fill="rgb(235,235,235)"/><circle vector-effect="non-scaling-stroke" cx="758.9240939466645" cy="83.08889077980385" r="6.9829174760751584" fill="none" stroke-width="4" stroke="rgb(235,235,235)" stroke-linejoin="miter" stroke-linecap="square" stroke-miterlimit="3"/><line x1="763.518" y1="88.259" x2="770.085" y2="94.826" vector-effect="non-scaling-stroke" stroke-width="4" stroke="rgb(235,235,235)" stroke-linejoin="miter" stroke-linecap="square" stroke-miterlimit="3"/><linearGradient id="_lgradient_1" x1="0" y1="0.5" x2="3.488604280343479" y2="0.47309464497956555" gradientTransform="matrix(446.791,0,0,200.716,200.824,161.542)" gradientUnits="userSpaceOnUse"><stop offset="0%" stop-opacity="1" style="stop-color:rgb(208,207,207)"/><stop offset="100%" stop-opacity="1" style="stop-color:rgb(0,0,0)"/></linearGradient><rect x="200.824" y="161.542" width="446.791" height="200.716" transform="matrix(1,0,0,1,0,0)" fill="url(#_lgradient_1)"/><linearGradient id="_lgradient_2" x1="0" y1="0.5" x2="4.657225509822459" y2="0.5555062653735399" gradientTransform="matrix(148.552,0,0,141.745,203.658,504.01)" gradientUnits="userSpaceOnUse"><stop offset="0%" stop-opacity="1" style="stop-color:rgb(208,207,207)"/><stop offset="100%" stop-opacity="1" style="stop-color:rgb(0,0,0)"/></linearGradient><rect x="203.658" y="504.01" width="148.552" height="141.745" transform="matrix(1,0,0,1,0,0)" fill="url(#_lgradient_2)"/><linearGradient id="_lgradient_3" x1="0" y1="0.5" x2="3.9870569421152657" y2="0.5408965908322378" gradientTransform="matrix(134.75,0,0,128.575,675.494,299.454)" gradientUnits="userSpaceOnUse"><stop offset="0%" stop-opacity="1" style="stop-color:rgb(208,207,207)"/><stop offset="100%" stop-opacity="1" style="stop-color:rgb(0,0,0)"/></linearGradient><rect x="675.494" y="299.454" width="134.75" height="128.575" transform="matrix(1,0,0,1,0,0)" fill="url(#_lgradient_3)"/><defs><linearGradient id="_lgradient_4" x1="0" y1="0.5" x2="2.4985922024578464" y2="0.1738712776176608"><stop offset="0%" style="stop-color:#DBD8D8"/><stop offset="100%" style="stop-color:#000000"/></linearGradient></defs><path d="M 680.888 204.634 L 811.088 204.634 C 815.996 204.634 819.98 207.683 819.98 211.438 L 819.98 211.438 C 819.98 215.193 815.996 218.242 811.088 218.242 L 680.888 218.242 C 675.98 218.242 671.995 215.193 671.995 211.438 L 671.995 211.438 C 671.995 207.683 675.98 204.634 680.888 204.634 Z" style="stroke:none;fill:url(#_lgradient_4);stroke-miterlimit:10;"/><rect x="669.16" y="166.078" width="147.418" height="22.68" transform="matrix(1,0,0,1,0,0)" fill="rgb(235,235,235)"/><circle vector-effect="non-scaling-stroke" cx="801.3501354037458" cy="175.65383655270935" r="5.183468737078783" fill="none" stroke-width="2" stroke="rgb(159,159,159)" stroke-linejoin="miter" stroke-linecap="square" stroke-miterlimit="3"/><line x1="804.761" y1="179.492" x2="809.635" y2="184.366" vector-effect="non-scaling-stroke" stroke-width="2" stroke="rgb(159,159,159)" stroke-linejoin="miter" stroke-linecap="square" stroke-miterlimit="3"/></g></g></svg>