<?xml version="1.0" encoding="UTF-8" standalone="no"?><!-- Generator: Gravit.io --><svg xmlns="http://www.w3.org/2000/svg" xmlns:xlink="http://www.w3.org/1999/xlink" style="isolation:isolate" viewBox="0 0 1080 1080" width="1080pt" height="1080pt"><defs><clipPath id="_clipPath_yG1EXeeCWymejiaOgbph6foCXhSklZdk"><rect width="1080" height="1080"/></clipPath></defs><mask id="_mask_Qpq1AY91SRf7fftX4v2l5wHOloFHSw22"><circle vector-effect="non-scaling-stroke" cx="546.25" cy="527.25" r="452.75" fill="white" stroke="none"/></mask><g clip-path="url(#_clipPath_yG1EXeeCWymejiaOgbph6foCXhSklZdk)" mask="url(#_mask_Qpq1AY91SRf7fftX4v2l5wHOloFHSw22)"><radialGradient id="_rgradient_0" fx="0.5" fy="0.5" cx="0.5" cy="0.5" r="0.5" gradientTransform="matrix(1150.619,25.782,18.143,1223.189,-5.631,-30.735)" gradientUnits="userSpaceOnUse"><stop offset="0%" stop-opacity="1" style="stop-color:rgb(251,242,242)"/><stop offset="100%" stop-opacity="1" style="stop-color:rgb(244,185,185)"/></radialGradient><rect x="44.5" y="59.5" width="1068.5" height="1068.5" transform="matrix(1,0,0,1,0,0)" fill="url(#_rgradient_0)"/><radialGradient id="_rgradient_1" fx="0.5" fy="0.5" cx="0.5" cy="0.5" r="0.5" gradientTransform="matrix(1207.937,38.675,-1.289,1090.624,-49.353,-19.453)" gradientUnits="userSpaceOnUse"><stop offset="0.8695652173913043%" stop-opacity="1" style="stop-color:rgb(255,214,126)"/><stop offset="100%" stop-opacity="1" style="stop-color:rgb(255,93,93)"/></radialGradient><path d=" M 374.033 385.771 L 373.06 385.771 L 373.06 681.203 C 373.06 787.572 458.808 873.931 564.425 873.931 L 564.425 873.931 C 658.503 873.931 734.883 797.007 734.883 702.259 L 734.883 385.771 L 733.91 385.771 C 728.238 291.374 649.784 216.463 553.971 216.463 C 458.159 216.463 379.704 291.374 374.033 385.771 Z " fill-rule="evenodd" fill="url(#_rgradient_1)"/><rect x="516.586" y="646.61" width="74.771" height="95.397" transform="matrix(1,0,0,1,0,0)" fill="rgb(249,187,187)"/><path d=" M 672.036 430.509 L 672.036 550.783 C 672.036 620.807 621.312 677.657 558.833 677.657 L 558.833 677.657 C 491.7 677.657 437.195 616.571 437.195 541.329 L 437.195 429.769 C 449.976 437.243 464.844 441.527 480.704 441.527 C 512.476 441.527 540.264 424.336 555.261 398.752 C 570.257 424.336 598.045 441.527 629.817 441.527 C 645.147 441.527 659.55 437.525 672.036 430.509 Z " fill-rule="evenodd" fill="rgb(255,210,210)"/><circle vector-effect="non-scaling-stroke" cx="494.45539965526973" cy="502.6547819427399" r="24.60135848150685" fill="rgb(255,255,255)"/><circle vector-effect="non-scaling-stroke" cx="495.0462619768784" cy="497.82045385685444" r="12.300679240753425" fill="rgb(0,0,0)"/><circle vector-effect="non-scaling-stroke" cx="609.6198376123673" cy="502.6547819427399" r="24.60135848150685" fill="rgb(255,255,255)"/><circle vector-effect="non-scaling-stroke" cx="609.6198376123673" cy="497.82045385685444" r="12.300679240753425" fill="rgb(0,0,0)"/><radialGradient id="_rgradient_2" fx="0.5" fy="0.5" cx="0.5" cy="0.5" r="0.5" gradientTransform="matrix(-435.708,0,-11.147,-427.089,780.205,1057.359)" gradientUnits="userSpaceOnUse"><stop offset="0%" stop-opacity="1" style="stop-color:rgb(255,137,137)"/><stop offset="98.69565217391305%" stop-opacity="1" style="stop-color:rgb(255,93,93)"/></radialGradient><path d=" M 338.923 975.758 C 340.739 827.386 437.654 707.63 556.765 707.63 C 677.009 707.63 774.631 829.675 774.632 980 L 338.923 975.758 Z " fill="url(#_rgradient_2)"/><path d=" M 516.586 590.317 C 534.883 604.066 539.247 605.729 553.76 605.787 C 568.421 605.846 570.773 604.075 591.357 590.317" fill="none" vector-effect="non-scaling-stroke" stroke-width="5" stroke="rgb(238,74,74)" stroke-linejoin="miter" stroke-linecap="square" stroke-miterlimit="3"/></g></svg>