<?xml version="1.0" encoding="UTF-8" standalone="no"?><!-- Generator: Gravit.io --><svg xmlns="http://www.w3.org/2000/svg" xmlns:xlink="http://www.w3.org/1999/xlink" style="isolation:isolate" viewBox="0 0 560 315" width="560pt" height="315pt"><defs><clipPath id="_clipPath_ay6Ri3wC2RkhWzQ2uPJPL4G0ELAq1Avl"><rect width="560" height="315"/></clipPath></defs><g clip-path="url(#_clipPath_ay6Ri3wC2RkhWzQ2uPJPL4G0ELAq1Avl)"><g opacity="0.77"><linearGradient id="_lgradient_58" x1="-0.024886877828054293" y1="0.15498270983966533" x2="1.9072398190045248" y2="0.718327569946555" gradientTransform="matrix(442,0,0,284.42,46.75,3.79)" gradientUnits="userSpaceOnUse"><stop offset="0%" stop-opacity="1" style="stop-color:rgb(197,229,255)"/><stop offset="100%" stop-opacity="1" style="stop-color:rgb(0,0,0)"/></linearGradient><path d=" M 360.694 288.21 C 366.178 283.681 371.296 278.666 376.003 273.232 C 439.292 266.368 488.75 208.787 488.75 138.871 C 488.75 64.318 432.515 3.79 363.25 3.79 C 327.062 3.79 294.431 20.312 271.527 46.732 C 262.561 47.711 253.872 49.706 245.565 52.618 C 224.937 36.591 199.61 27.147 172.25 27.147 C 102.985 27.147 46.75 87.675 46.75 162.228 C 46.75 219.579 80.029 268.631 126.919 288.21 L 360.694 288.21 L 360.694 288.21 Z " fill="url(#_lgradient_58)"/></g><rect x="116" y="251.112" width="1" height="37.098" transform="matrix(1,0,0,1,0,0)" fill="rgb(152,0,0)" vector-effect="non-scaling-stroke" stroke-width="3" stroke="rgb(0,0,0)" stroke-linejoin="miter" stroke-linecap="square" stroke-miterlimit="2"/><linearGradient id="_lgradient_59" x1="0.329135180520571" y1="0.17580357142860326" x2="1.2120067170445008" y2="0.4000000000000019" gradientTransform="matrix(595.5,0,0,50,5,266.21)" gradientUnits="userSpaceOnUse"><stop offset="0%" stop-opacity="1" style="stop-color:rgb(255,172,63)"/><stop offset="100%" stop-opacity="1" style="stop-color:rgb(0,0,0)"/></linearGradient><path d=" M 5 291.21 L 5 291.21 Q 455 241.21 552 291.21 Q 649 341.21 552 291.21 L 5 291.21 Z " fill="url(#_lgradient_59)"/><linearGradient id="_lgradient_60" x1="0.3333333333333328" y1="-0.007738095238098097" x2="0.303571428571428" y2="1.9255952380952355" gradientTransform="matrix(168,0,0,75,242.75,181.79)" gradientUnits="userSpaceOnUse"><stop offset="0%" stop-opacity="1" style="stop-color:rgb(125,125,125)"/><stop offset="100%" stop-opacity="1" style="stop-color:rgb(0,0,0)"/></linearGradient><rect x="242.75" y="181.79" width="168" height="75" transform="matrix(1,0,0,1,0,0)" fill="url(#_lgradient_60)"/><linearGradient id="_lgradient_61" x1="0.2142857142857164" y1="-0.22884615384615725" x2="0.2500000000000024" y2="2.8296153846153853" gradientTransform="matrix(168,0,0,69.643,242.75,101.147)" gradientUnits="userSpaceOnUse"><stop offset="0%" stop-opacity="1" style="stop-color:rgb(125,125,125)"/><stop offset="100%" stop-opacity="1" style="stop-color:rgb(0,0,0)"/></linearGradient><rect x="242.75" y="101.147" width="168" height="69.643" transform="matrix(1,0,0,1,0,0)" fill="url(#_lgradient_61)"/><linearGradient id="_lgradient_62" x1="0" y1="0.5" x2="1" y2="0.5" gradientTransform="matrix(-78,0,0,69.643,488.75,184.469)" gradientUnits="userSpaceOnUse"><stop offset="0%" stop-opacity="1" style="stop-color:rgb(174,172,172)"/><stop offset="100%" stop-opacity="1" style="stop-color:rgb(55,55,55)"/></linearGradient><rect x="410.75" y="184.469" width="78" height="69.643" transform="matrix(1,0,0,1,0,0)" fill="url(#_lgradient_62)"/><linearGradient id="_lgradient_63" x1="0" y1="0.5" x2="1" y2="0.5" gradientTransform="matrix(78,0,0,69.643,166.138,184.469)" gradientUnits="userSpaceOnUse"><stop offset="0%" stop-opacity="1" style="stop-color:rgb(174,172,172)"/><stop offset="100%" stop-opacity="1" style="stop-color:rgb(55,55,55)"/></linearGradient><rect x="166.138" y="184.469" width="78" height="69.643" transform="matrix(1,0,0,1,0,0)" fill="url(#_lgradient_63)"/><linearGradient id="_lgradient_64" x1="0" y1="0.5" x2="1" y2="0.5" gradientTransform="matrix(78,0,0,69.643,164.75,101.147)" gradientUnits="userSpaceOnUse"><stop offset="0%" stop-opacity="1" style="stop-color:rgb(174,172,172)"/><stop offset="100%" stop-opacity="1" style="stop-color:rgb(55,55,55)"/></linearGradient><rect x="164.75" y="101.147" width="78" height="69.643" transform="matrix(1,0,0,1,0,0)" fill="url(#_lgradient_64)"/><linearGradient id="_lgradient_65" x1="0" y1="0.5" x2="1" y2="0.5" gradientTransform="matrix(-78,0,0,69.643,488.75,101.147)" gradientUnits="userSpaceOnUse"><stop offset="0%" stop-opacity="1" style="stop-color:rgb(174,172,172)"/><stop offset="100%" stop-opacity="1" style="stop-color:rgb(55,55,55)"/></linearGradient><rect x="410.75" y="101.147" width="78" height="69.643" transform="matrix(1,0,0,1,0,0)" fill="url(#_lgradient_65)"/><linearGradient id="_lgradient_66" x1="-0.008928571428570953" y1="-0.7500000000000169" x2="1.1041666666666683" y2="1.7356396866840584" gradientTransform="matrix(336,0,0,13.679,158.75,87.469)" gradientUnits="userSpaceOnUse"><stop offset="0%" stop-opacity="1" style="stop-color:rgb(153,153,153)"/><stop offset="100%" stop-opacity="1" style="stop-color:rgb(0,0,0)"/></linearGradient><rect x="158.75" y="87.469" width="336" height="13.679" transform="matrix(1,0,0,1,0,0)" fill="url(#_lgradient_66)"/><linearGradient id="_lgradient_67" x1="-0.008928571428570953" y1="-0.7500000000000169" x2="1.1041666666666683" y2="1.7356396866840584" gradientTransform="matrix(336,0,0,13.679,155.75,170.79)" gradientUnits="userSpaceOnUse"><stop offset="0%" stop-opacity="1" style="stop-color:rgb(153,153,153)"/><stop offset="100%" stop-opacity="1" style="stop-color:rgb(0,0,0)"/></linearGradient><rect x="155.75" y="170.79" width="336" height="13.679" transform="matrix(1,0,0,1,0,0)" fill="url(#_lgradient_67)"/><linearGradient id="_lgradient_68" x1="0.5714285714285716" y1="0.3783932501834145" x2="0.5773809523809526" y2="1.8780264123257466" gradientTransform="matrix(168,0,0,48.679,242.75,38.79)" gradientUnits="userSpaceOnUse"><stop offset="0%" stop-opacity="1" style="stop-color:rgb(125,125,125)"/><stop offset="100%" stop-opacity="1" style="stop-color:rgb(0,0,0)"/></linearGradient><polygon points="326.75,38.79,410.75,87.469,242.75,87.469" fill="url(#_lgradient_68)"/><linearGradient id="_lgradient_69" x1="-0.49999999999998573" y1="0.4037869458128051" x2="2.9062500000000053" y2="0.38654556650245986" gradientTransform="matrix(32,0,0,58,310.75,198.79)" gradientUnits="userSpaceOnUse"><stop offset="0%" stop-opacity="1" style="stop-color:rgb(235,235,235)"/><stop offset="100%" stop-opacity="1" style="stop-color:rgb(0,0,0)"/></linearGradient><linearGradient id="_lgradient_70" x1="2.5390625000000213" y1="0.43465209359608203" x2="-0.648437499999968" y2="0.4346520935960824"><stop offset="0%" stop-opacity="1" style="stop-color:rgb(255,255,255)"/><stop offset="100%" stop-opacity="1" style="stop-color:rgb(0,0,0)"/></linearGradient><rect x="310.75" y="198.79" width="32" height="58" transform="matrix(1,0,0,1,0,0)" fill="url(#_lgradient_69)" vector-effect="non-scaling-stroke" stroke-width="4" stroke="url(#_lgradient_70)" stroke-linejoin="miter" stroke-linecap="square" stroke-miterlimit="2"/><linearGradient id="_lgradient_71" x1="0.5060606060606063" y1="-0.505351681957201" x2="0.5151515151515154" y2="1.6353211009174125" gradientTransform="matrix(330,0,0,11.679,158.75,254.112)" gradientUnits="userSpaceOnUse"><stop offset="0%" stop-opacity="1" style="stop-color:rgb(125,125,125)"/><stop offset="100%" stop-opacity="1" style="stop-color:rgb(0,0,0)"/></linearGradient><rect x="158.75" y="254.112" width="330" height="11.679" transform="matrix(1,0,0,1,0,0)" fill="url(#_lgradient_71)"/><linearGradient id="_lgradient_72" x1="0.27650429799427" y1="-0.9915902140672941" x2="0.6346704871060185" y2="3.3753822629969212" gradientTransform="matrix(349,0,0,11.679,152.25,265.79)" gradientUnits="userSpaceOnUse"><stop offset="0%" stop-opacity="1" style="stop-color:rgb(89,88,88)"/><stop offset="100%" stop-opacity="1" style="stop-color:rgb(0,0,0)"/></linearGradient><rect x="152.25" y="265.79" width="349" height="11.679" transform="matrix(1,0,0,1,0,0)" fill="url(#_lgradient_72)"/><linearGradient id="_lgradient_73" x1="-0.6428571428571282" y1="0.5926020408163223" x2="4.185714285714299" y2="0.4783163265306086" gradientTransform="matrix(35,0,0,35,432.25,118.469)" gradientUnits="userSpaceOnUse"><stop offset="0%" stop-opacity="1" style="stop-color:rgb(235,235,235)"/><stop offset="100%" stop-opacity="1" style="stop-color:rgb(0,0,0)"/></linearGradient><linearGradient id="_lgradient_74" x1="2.307142857142887" y1="0.500892857142897" x2="-0.4928571428571136" y2="0.558035714285754"><stop offset="0%" stop-opacity="1" style="stop-color:rgb(255,255,255)"/><stop offset="100%" stop-opacity="1" style="stop-color:rgb(0,0,0)"/></linearGradient><rect x="432.25" y="118.469" width="35" height="35" transform="matrix(1,0,0,1,0,0)" fill="url(#_lgradient_73)" vector-effect="non-scaling-stroke" stroke-width="4" stroke="url(#_lgradient_74)" stroke-linejoin="miter" stroke-linecap="square" stroke-miterlimit="2"/><linearGradient id="_lgradient_75" x1="-0.6428571428571282" y1="0.5926020408163223" x2="4.185714285714299" y2="0.4783163265306086" gradientTransform="matrix(35,0,0,35,432.25,201.79)" gradientUnits="userSpaceOnUse"><stop offset="0%" stop-opacity="1" style="stop-color:rgb(235,235,235)"/><stop offset="100%" stop-opacity="1" style="stop-color:rgb(0,0,0)"/></linearGradient><linearGradient id="_lgradient_76" x1="2.307142857142887" y1="0.500892857142897" x2="-0.4928571428571136" y2="0.558035714285754"><stop offset="0%" stop-opacity="1" style="stop-color:rgb(255,255,255)"/><stop offset="100%" stop-opacity="1" style="stop-color:rgb(0,0,0)"/></linearGradient><rect x="432.25" y="201.79" width="35" height="35" transform="matrix(1,0,0,1,0,0)" fill="url(#_lgradient_75)" vector-effect="non-scaling-stroke" stroke-width="4" stroke="url(#_lgradient_76)" stroke-linejoin="miter" stroke-linecap="square" stroke-miterlimit="2"/><linearGradient id="_lgradient_77" x1="-0.6428571428571282" y1="0.5926020408163223" x2="4.185714285714299" y2="0.4783163265306086" gradientTransform="matrix(35,0,0,35,187.638,118.469)" gradientUnits="userSpaceOnUse"><stop offset="0%" stop-opacity="1" style="stop-color:rgb(235,235,235)"/><stop offset="100%" stop-opacity="1" style="stop-color:rgb(0,0,0)"/></linearGradient><linearGradient id="_lgradient_78" x1="3.010330353997597" y1="0.5866071428571837" x2="-0.4753839317166886" y2="0.6151785714286108"><stop offset="0%" stop-opacity="1" style="stop-color:rgb(255,255,255)"/><stop offset="100%" stop-opacity="1" style="stop-color:rgb(0,0,0)"/></linearGradient><rect x="187.638" y="118.469" width="35" height="35" transform="matrix(1,0,0,1,0,0)" fill="url(#_lgradient_77)" vector-effect="non-scaling-stroke" stroke-width="4" stroke="url(#_lgradient_78)" stroke-linejoin="miter" stroke-linecap="square" stroke-miterlimit="2"/><linearGradient id="_lgradient_79" x1="-0.6428571428571282" y1="0.5926020408163223" x2="4.185714285714299" y2="0.4783163265306086" gradientTransform="matrix(35,0,0,35,186.25,201.79)" gradientUnits="userSpaceOnUse"><stop offset="0%" stop-opacity="1" style="stop-color:rgb(235,235,235)"/><stop offset="100%" stop-opacity="1" style="stop-color:rgb(0,0,0)"/></linearGradient><linearGradient id="_lgradient_80" x1="3.010330353997597" y1="0.5866071428571837" x2="-0.4753839317166886" y2="0.6151785714286108"><stop offset="0%" stop-opacity="1" style="stop-color:rgb(255,255,255)"/><stop offset="100%" stop-opacity="1" style="stop-color:rgb(0,0,0)"/></linearGradient><rect x="186.25" y="201.79" width="35" height="35" transform="matrix(1,0,0,1,0,0)" fill="url(#_lgradient_79)" vector-effect="non-scaling-stroke" stroke-width="4" stroke="url(#_lgradient_80)" stroke-linejoin="miter" stroke-linecap="square" stroke-miterlimit="2"/><linearGradient id="_lgradient_81" x1="-0.10156249999999307" y1="0.42117346938775085" x2="2.625000000000004" y2="0.4497448979591793" gradientTransform="matrix(128,0,0,35,262.75,118.469)" gradientUnits="userSpaceOnUse"><stop offset="0%" stop-opacity="1" style="stop-color:rgb(235,235,235)"/><stop offset="100%" stop-opacity="1" style="stop-color:rgb(0,0,0)"/></linearGradient><linearGradient id="_lgradient_82" x1="2.4472656250000115" y1="0.6437500000000402" x2="-0.7324218749999867" y2="0.7008928571428913"><stop offset="0%" stop-opacity="1" style="stop-color:rgb(255,255,255)"/><stop offset="100%" stop-opacity="1" style="stop-color:rgb(0,0,0)"/></linearGradient><rect x="262.75" y="118.469" width="128" height="35" transform="matrix(1,0,0,1,0,0)" fill="url(#_lgradient_81)" vector-effect="non-scaling-stroke" stroke-width="4" stroke="url(#_lgradient_82)" stroke-linejoin="miter" stroke-linecap="square" stroke-miterlimit="2"/><linearGradient id="_lgradient_83" x1="0.1881720430107543" y1="-0.006719296163922195" x2="1.0483870967741944" y2="1.0507068732222125" gradientTransform="matrix(46.5,0,0,139.017,93.25,120.934)" gradientUnits="userSpaceOnUse"><stop offset="0%" stop-opacity="1" style="stop-color:rgb(88,255,38)"/><stop offset="100%" stop-opacity="1" style="stop-color:rgb(0,0,0)"/></linearGradient><ellipse vector-effect="non-scaling-stroke" cx="116.49999999999994" cy="190.44249394672988" rx="23.25000000000002" ry="69.5083989104117" fill="url(#_lgradient_83)"/><linearGradient id="_lgradient_84" x1="0.6235679642090245" y1="0.4009484854449721" x2="0.012847265114259376" y2="1.2404849804665667" gradientTransform="matrix(-56.841,-37.484,33.692,-51.091,121.936,126.859)" gradientUnits="userSpaceOnUse"><stop offset="0%" stop-opacity="1" style="stop-color:rgb(255,255,255)"/><stop offset="97.48889436639105%" stop-opacity="1" style="stop-color:rgb(208,208,208)"/><stop offset="100%" stop-opacity="1" style="stop-color:rgb(0,0,0)"/></linearGradient><path d=" M 124.552 75.674 C 127.776 74.764 131.364 75.208 134.378 77.195 C 139.885 80.827 141.408 88.247 137.776 93.754 C 134.716 98.395 128.964 100.207 123.934 98.491 C 120.216 100.428 115.587 100.342 111.842 97.873 C 111.364 97.557 110.916 97.213 110.505 96.839 C 108.054 98.087 105.02 98.017 102.561 96.396 C 101.245 95.528 100.272 94.333 99.684 92.987 C 95.798 95.66 90.521 95.87 86.344 93.116 C 80.837 89.484 79.314 82.064 82.946 76.557 C 85.704 72.375 90.646 70.491 95.275 71.425 C 95.413 71.168 95.566 70.917 95.729 70.669 C 99.361 65.162 106.78 63.639 112.287 67.271 C 112.591 67.471 112.883 67.683 113.155 67.912 C 115.594 66.702 118.594 66.786 121.029 68.392 C 123.534 70.044 124.794 72.879 124.552 75.674 Z " fill-rule="evenodd" fill="url(#_lgradient_84)"/><linearGradient id="_lgradient_85" x1="0.817068515648491" y1="0.5697850723843405" x2="-0.49833463640188513" y2="0.08611522526503335" gradientTransform="matrix(-62.752,-13.612,10.066,-46.407,241.537,94.564)" gradientUnits="userSpaceOnUse"><stop offset="0%" stop-opacity="1" style="stop-color:rgb(255,255,255)"/><stop offset="99.1304347826087%" stop-opacity="1" style="stop-color:rgb(198,198,198)"/></linearGradient><path d=" M 225.004 52.238 C 227.683 50.225 231.189 49.343 234.718 50.109 C 241.164 51.507 245.263 57.877 243.865 64.324 C 242.686 69.757 237.977 73.522 232.666 73.739 C 229.899 76.888 225.551 78.479 221.167 77.528 C 220.607 77.406 220.065 77.247 219.547 77.047 C 217.712 79.095 214.857 80.126 211.979 79.501 C 210.438 79.167 209.099 78.404 208.065 77.361 C 205.406 81.257 200.561 83.358 195.671 82.298 C 189.224 80.899 185.125 74.53 186.524 68.083 C 187.586 63.187 191.514 59.645 196.169 58.845 C 196.204 58.556 196.256 58.267 196.319 57.977 C 197.717 51.53 204.087 47.431 210.534 48.829 C 210.889 48.907 211.238 48.999 211.574 49.114 C 213.412 47.105 216.24 46.101 219.09 46.719 C 222.022 47.355 224.221 49.544 225.004 52.238 Z " fill-rule="evenodd" fill="url(#_lgradient_85)"/><linearGradient id="_lgradient_86" x1="0.5114573038122789" y1="0.40906540404300273" x2="-0.6613421385516329" y2="1.35805176615766" gradientTransform="matrix(-87.977,-58.017,52.148,-79.076,428.665,115.021)" gradientUnits="userSpaceOnUse"><stop offset="0%" stop-opacity="1" style="stop-color:rgb(255,255,255)"/><stop offset="97.82608695652173%" stop-opacity="1" style="stop-color:rgb(166,166,166)"/></linearGradient><path d=" M 432.714 35.799 C 437.705 34.39 443.257 35.077 447.923 38.153 C 456.447 43.775 458.804 55.258 453.182 63.782 C 448.445 70.966 439.543 73.769 431.758 71.115 C 426.004 74.113 418.839 73.979 413.043 70.157 C 412.303 69.669 411.609 69.137 410.973 68.557 C 407.18 70.489 402.483 70.381 398.678 67.871 C 396.641 66.528 395.135 64.678 394.225 62.595 C 388.21 66.732 380.042 67.058 373.577 62.794 C 365.053 57.173 362.696 45.689 368.318 37.165 C 372.586 30.692 380.236 27.776 387.401 29.221 C 387.613 28.825 387.85 28.435 388.103 28.052 C 393.724 19.528 405.208 17.172 413.732 22.793 C 414.202 23.103 414.653 23.431 415.074 23.784 C 418.85 21.913 423.493 22.043 427.261 24.528 C 431.138 27.085 433.088 31.473 432.714 35.799 Z " fill-rule="evenodd" fill="url(#_lgradient_86)"/></g></svg>