<?xml version="1.0" encoding="UTF-8" standalone="no"?><!-- Generator: Gravit.io --><svg xmlns="http://www.w3.org/2000/svg" xmlns:xlink="http://www.w3.org/1999/xlink" style="isolation:isolate" viewBox="0 0 1080 1080" width="1080pt" height="1080pt"><defs><clipPath id="_clipPath_lyOWA8abI4RmJIRtvbCw4WomhMnB9gWT"><rect width="1080" height="1080"/></clipPath></defs><g clip-path="url(#_clipPath_lyOWA8abI4RmJIRtvbCw4WomhMnB9gWT)"><mask id="_mask_TOvAur7lSwb9Kmu4raMGOEFlZsulTM6Z"><ellipse vector-effect="non-scaling-stroke" cx="547.2377259198458" cy="526.6886891442123" rx="470.88316333873195" ry="474.4147603956915" fill="white" stroke="none"/></mask><g mask="url(#_mask_TOvAur7lSwb9Kmu4raMGOEFlZsulTM6Z)"><linearGradient id="_lgradient_0" x1="0.1924848952778761" y1="0.6594427244582046" x2="0.9039561547273129" y2="-0.03389278148932706" gradientTransform="matrix(1506.095,0,0,1010,-231.048,20)" gradientUnits="userSpaceOnUse"><stop offset="0%" stop-opacity="1" style="stop-color:rgb(222,242,255)"/><stop offset="99.1304347826087%" stop-opacity="1" style="stop-color:rgb(0,170,255)"/></linearGradient><rect x="-231.048" y="20" width="1506.095" height="1010" transform="matrix(1,0,0,1,0,0)" fill="url(#_lgradient_0)"/><defs><filter id="I2ut7NdHd9W4ykNzI3SrPtNaEOyB8KNv" x="-200%" y="-200%" width="400%" height="400%" filterUnits="objectBoundingBox" color-interpolation-filters="sRGB"><feGaussianBlur xmlns="http://www.w3.org/2000/svg" stdDeviation="21.46804531419514"/></filter></defs><g filter="url(#I2ut7NdHd9W4ykNzI3SrPtNaEOyB8KNv)"><radialGradient id="_rgradient_0" fx="0.5" fy="0.5" cx="0.5" cy="0.5" r="0.5" gradientTransform="matrix(-260.591,15.013,1.808,-274.876,744.967,656.625)" gradientUnits="userSpaceOnUse"><stop offset="0%" stop-opacity="1" style="stop-color:rgb(255,200,0)"/><stop offset="96.95652173913044%" stop-opacity="1" style="stop-color:rgb(219,18,18)"/></radialGradient><path d=" M 456.513 607.586 C 456.912 518.608 527.257 446.005 614.673 445.008 C 702.944 444.001 775.409 516.389 776.394 606.556 L 616.458 608.38 L 456.513 607.586 Z " fill="url(#_rgradient_0)"/></g><radialGradient id="_rgradient_1" fx="0.5" fy="0.5" cx="0.5" cy="0.5" r="0.5" gradientTransform="matrix(-260.591,15.013,1.808,-274.876,751.124,686.511)" gradientUnits="userSpaceOnUse"><stop offset="0%" stop-opacity="1" style="stop-color:rgb(255,200,0)"/><stop offset="96.95652173913044%" stop-opacity="1" style="stop-color:rgb(219,18,18)"/></radialGradient><path d=" M 462.671 637.472 C 463.07 548.494 533.415 475.891 620.83 474.894 C 709.101 473.888 781.566 546.275 782.552 636.443 L 622.616 638.266 L 462.671 637.472 Z " fill="url(#_rgradient_1)"/><linearGradient id="_lgradient_1" x1="0.5347016141569229" y1="1.0848274589753697" x2="0.5180794509355116" y2="0.12514641793577386" gradientTransform="matrix(580.236,0,0,513.295,76.355,268.114)" gradientUnits="userSpaceOnUse"><stop offset="2.1739130434782608%" stop-opacity="1" style="stop-color:rgb(2,181,74)"/><stop offset="97.82608695652173%" stop-opacity="1" style="stop-color:rgb(255,233,186)"/></linearGradient><path d=" M 595.015 781.409 L 366.473 781.409 L 137.93 781.409 C 103.946 781.409 89.931 757.389 106.653 727.803 L 221.414 524.761 L 336.174 321.72 C 352.896 292.134 380.049 292.134 396.771 321.72 L 511.532 524.761 L 626.292 727.803 C 643.014 757.389 628.999 781.409 595.015 781.409 Z " fill="url(#_lgradient_1)"/><linearGradient id="_lgradient_2" x1="0.5347016141569229" y1="1.0848274589753697" x2="0.5180794509355116" y2="0.12514641793577386" gradientTransform="matrix(464.074,0,0,410.534,544.357,370.875)" gradientUnits="userSpaceOnUse"><stop offset="2.1739130434782608%" stop-opacity="1" style="stop-color:rgb(2,181,74)"/><stop offset="97.82608695652173%" stop-opacity="1" style="stop-color:rgb(255,233,186)"/></linearGradient><path d=" M 959.182 781.409 L 776.394 781.409 L 593.606 781.409 C 566.425 781.409 555.215 762.197 568.59 738.535 L 660.376 576.142 L 752.161 413.749 C 765.536 390.086 787.252 390.086 800.627 413.749 L 892.412 576.142 L 984.198 738.535 C 997.572 762.197 986.363 781.409 959.182 781.409 Z " fill="url(#_lgradient_2)"/><linearGradient id="_lgradient_3" x1="0.5347016141569229" y1="1.0848274589753697" x2="0.5180794509355116" y2="0.12514641793577386" gradientTransform="matrix(361.62,0,0,319.901,391.549,461.508)" gradientUnits="userSpaceOnUse"><stop offset="2.1739130434782608%" stop-opacity="1" style="stop-color:rgb(2,181,74)"/><stop offset="97.82608695652173%" stop-opacity="1" style="stop-color:rgb(255,233,186)"/></linearGradient><path d=" M 714.793 781.409 L 572.359 781.409 L 429.924 781.409 C 408.744 781.409 400.01 766.439 410.432 748 L 481.954 621.458 L 553.476 494.917 C 563.898 476.478 580.82 476.478 591.242 494.917 L 662.764 621.458 L 734.286 748 C 744.708 766.439 735.973 781.409 714.793 781.409 Z " fill="url(#_lgradient_3)"/><linearGradient id="_lgradient_4" x1="0.35688802506600237" y1="1.199444014844072" x2="0.4207086172101626" y2="0.19772071207700437" gradientTransform="matrix(81.929,0,0,77.313,76.355,686.467)" gradientUnits="userSpaceOnUse"><stop offset="0%" stop-opacity="1" style="stop-color:rgb(0,255,13)"/><stop offset="98.26086956521739%" stop-opacity="1" style="stop-color:rgb(242,242,242)"/></linearGradient><path d=" M 86.271 763.78 L 76.355 719.466 L 94.196 741.6 L 86.739 686.999 L 106.886 742.315 L 106.886 686.467 L 121.934 741.554 L 141.528 687.747 L 131.779 741.305 L 158.284 719.387 L 142.26 752.392 L 132.113 763.78 L 86.271 763.78 Z " fill="url(#_lgradient_4)"/><linearGradient id="_lgradient_5" x1="0.35688802506600237" y1="1.199444014844072" x2="0.4207086172101626" y2="0.19772071207700437" gradientTransform="matrix(81.929,0,0,77.313,117.319,686.467)" gradientUnits="userSpaceOnUse"><stop offset="0%" stop-opacity="1" style="stop-color:rgb(0,255,13)"/><stop offset="98.26086956521739%" stop-opacity="1" style="stop-color:rgb(242,242,242)"/></linearGradient><path d=" M 127.235 763.78 L 117.319 719.466 L 135.16 741.6 L 127.704 686.999 L 147.851 742.315 L 147.851 686.467 L 162.898 741.554 L 182.493 687.747 L 172.744 741.305 L 199.249 719.387 L 183.225 752.392 L 173.078 763.78 L 127.235 763.78 Z " fill="url(#_lgradient_5)"/><linearGradient id="_lgradient_6" x1="0.35688802506600237" y1="1.199444014844072" x2="0.4207086172101626" y2="0.19772071207700437" gradientTransform="matrix(81.929,0,0,77.313,182.493,669.269)" gradientUnits="userSpaceOnUse"><stop offset="0%" stop-opacity="1" style="stop-color:rgb(0,255,13)"/><stop offset="98.26086956521739%" stop-opacity="1" style="stop-color:rgb(242,242,242)"/></linearGradient><path d=" M 192.409 746.582 L 182.493 702.267 L 200.334 724.402 L 192.878 669.801 L 213.025 725.117 L 213.025 669.269 L 228.072 724.356 L 247.667 670.548 L 237.917 724.107 L 264.422 702.189 L 248.399 735.194 L 238.251 746.582 L 192.409 746.582 Z " fill="url(#_lgradient_6)"/><linearGradient id="_lgradient_7" x1="0.35688802506600237" y1="1.199444014844072" x2="0.4207086172101626" y2="0.19772071207700437" gradientTransform="matrix(81.929,0,0,77.313,247.667,669.269)" gradientUnits="userSpaceOnUse"><stop offset="0%" stop-opacity="1" style="stop-color:rgb(0,255,13)"/><stop offset="98.26086956521739%" stop-opacity="1" style="stop-color:rgb(242,242,242)"/></linearGradient><path d=" M 257.583 746.582 L 247.667 702.267 L 265.508 724.402 L 258.051 669.801 L 278.198 725.117 L 278.198 669.269 L 293.246 724.356 L 312.84 670.548 L 303.091 724.107 L 329.596 702.189 L 313.572 735.194 L 303.425 746.582 L 257.583 746.582 Z " fill="url(#_lgradient_7)"/><linearGradient id="_lgradient_8" x1="0.35688802506600237" y1="1.199444014844072" x2="0.4207086172101626" y2="0.19772071207700437" gradientTransform="matrix(106.782,0,0,100.765,288.552,638.43)" gradientUnits="userSpaceOnUse"><stop offset="0%" stop-opacity="1" style="stop-color:rgb(0,255,13)"/><stop offset="98.26086956521739%" stop-opacity="1" style="stop-color:rgb(242,242,242)"/></linearGradient><path d=" M 301.476 739.195 L 288.552 681.438 L 311.805 710.287 L 302.087 639.123 L 328.345 711.219 L 328.345 638.43 L 347.957 710.227 L 373.496 640.097 L 360.789 709.902 L 395.334 681.335 L 374.45 724.352 L 361.225 739.195 L 301.476 739.195 Z " fill="url(#_lgradient_8)"/><linearGradient id="_lgradient_9" x1="0.35688802506600237" y1="1.199444014844072" x2="0.4207086172101626" y2="0.19772071207700437" gradientTransform="matrix(81.929,0,0,77.313,366.473,661.882)" gradientUnits="userSpaceOnUse"><stop offset="0%" stop-opacity="1" style="stop-color:rgb(0,255,13)"/><stop offset="98.26086956521739%" stop-opacity="1" style="stop-color:rgb(242,242,242)"/></linearGradient><path d=" M 376.389 739.195 L 366.473 694.88 L 384.314 717.015 L 376.857 662.413 L 397.004 717.73 L 397.004 661.882 L 412.052 716.969 L 431.646 663.161 L 421.897 716.719 L 448.402 694.802 L 432.378 727.806 L 422.231 739.195 L 376.389 739.195 Z " fill="url(#_lgradient_9)"/><linearGradient id="_lgradient_10" x1="0.35688802506600237" y1="1.199444014844072" x2="0.4207086172101626" y2="0.19772071207700437" gradientTransform="matrix(81.929,0,0,77.313,415.549,655.628)" gradientUnits="userSpaceOnUse"><stop offset="0%" stop-opacity="1" style="stop-color:rgb(0,255,13)"/><stop offset="98.26086956521739%" stop-opacity="1" style="stop-color:rgb(242,242,242)"/></linearGradient><path d=" M 425.465 732.941 L 415.549 688.626 L 433.39 710.761 L 425.933 656.16 L 446.08 711.476 L 446.08 655.628 L 461.128 710.715 L 480.722 656.907 L 470.973 710.466 L 497.478 688.548 L 481.454 721.553 L 471.307 732.941 L 425.465 732.941 Z " fill="url(#_lgradient_10)"/><linearGradient id="_lgradient_11" x1="0.35688802506600237" y1="1.199444014844072" x2="0.4207086172101626" y2="0.19772071207700437" gradientTransform="matrix(81.929,0,0,77.313,481.035,663.446)" gradientUnits="userSpaceOnUse"><stop offset="0%" stop-opacity="1" style="stop-color:rgb(0,255,13)"/><stop offset="98.26086956521739%" stop-opacity="1" style="stop-color:rgb(242,242,242)"/></linearGradient><path d=" M 490.951 740.759 L 481.035 696.444 L 498.876 718.578 L 491.42 663.977 L 511.567 719.293 L 511.567 663.446 L 526.614 718.532 L 546.209 664.725 L 536.46 718.283 L 562.965 696.365 L 546.941 729.37 L 536.794 740.759 L 490.951 740.759 Z " fill="url(#_lgradient_11)"/><linearGradient id="_lgradient_12" x1="0.35688802506600237" y1="1.199444014844072" x2="0.4207086172101626" y2="0.19772071207700437" gradientTransform="matrix(81.929,0,0,77.313,544.598,655.628)" gradientUnits="userSpaceOnUse"><stop offset="0%" stop-opacity="1" style="stop-color:rgb(0,255,13)"/><stop offset="98.26086956521739%" stop-opacity="1" style="stop-color:rgb(242,242,242)"/></linearGradient><path d=" M 554.514 732.941 L 544.598 688.626 L 562.439 710.761 L 554.983 656.16 L 575.129 711.476 L 575.129 655.628 L 590.177 710.715 L 609.771 656.907 L 600.022 710.466 L 626.527 688.548 L 610.503 721.553 L 600.356 732.941 L 554.514 732.941 Z " fill="url(#_lgradient_12)"/><linearGradient id="_lgradient_13" x1="0.35688802506600237" y1="1.199444014844072" x2="0.4207086172101626" y2="0.19772071207700437" gradientTransform="matrix(81.929,0,0,77.313,700.622,663.446)" gradientUnits="userSpaceOnUse"><stop offset="0%" stop-opacity="1" style="stop-color:rgb(0,255,13)"/><stop offset="98.26086956521739%" stop-opacity="1" style="stop-color:rgb(242,242,242)"/></linearGradient><path d=" M 710.538 740.759 L 700.622 696.444 L 718.463 718.578 L 711.007 663.977 L 731.154 719.293 L 731.154 663.446 L 746.201 718.532 L 765.796 664.725 L 756.047 718.283 L 782.552 696.365 L 766.528 729.37 L 756.381 740.759 L 710.538 740.759 Z " fill="url(#_lgradient_13)"/><linearGradient id="_lgradient_14" x1="0.35688802506600237" y1="1.199444014844072" x2="0.4207086172101626" y2="0.19772071207700437" gradientTransform="matrix(81.929,0,0,77.313,776.394,670.365)" gradientUnits="userSpaceOnUse"><stop offset="0%" stop-opacity="1" style="stop-color:rgb(0,255,13)"/><stop offset="98.26086956521739%" stop-opacity="1" style="stop-color:rgb(242,242,242)"/></linearGradient><path d=" M 786.31 747.678 L 776.394 703.363 L 794.235 725.497 L 786.779 670.896 L 806.926 726.212 L 806.926 670.365 L 821.973 725.451 L 841.568 671.644 L 831.818 725.202 L 858.323 703.284 L 842.3 736.289 L 832.152 747.678 L 786.31 747.678 Z " fill="url(#_lgradient_14)"/><linearGradient id="_lgradient_15" x1="0.35688802506600237" y1="1.199444014844072" x2="0.4207086172101626" y2="0.19772071207700437" gradientTransform="matrix(81.929,0,0,77.313,858.323,686.467)" gradientUnits="userSpaceOnUse"><stop offset="0%" stop-opacity="1" style="stop-color:rgb(0,255,13)"/><stop offset="98.26086956521739%" stop-opacity="1" style="stop-color:rgb(242,242,242)"/></linearGradient><path d=" M 868.239 763.78 L 858.323 719.466 L 876.165 741.6 L 868.708 686.999 L 888.855 742.315 L 888.855 686.467 L 903.903 741.554 L 923.497 687.747 L 913.748 741.305 L 940.253 719.387 L 924.229 752.392 L 914.082 763.78 L 868.239 763.78 Z " fill="url(#_lgradient_15)"/><linearGradient id="_lgradient_16" x1="0.35688802506600237" y1="1.199444014844072" x2="0.4207086172101626" y2="0.19772071207700437" gradientTransform="matrix(81.929,0,0,77.313,940.253,686.467)" gradientUnits="userSpaceOnUse"><stop offset="0%" stop-opacity="1" style="stop-color:rgb(0,255,13)"/><stop offset="98.26086956521739%" stop-opacity="1" style="stop-color:rgb(242,242,242)"/></linearGradient><path d=" M 950.169 763.78 L 940.253 719.466 L 958.094 741.6 L 950.638 686.999 L 970.784 742.315 L 970.784 686.467 L 985.832 741.554 L 1005.426 687.747 L 995.677 741.305 L 1022.182 719.387 L 1006.159 752.392 L 996.011 763.78 L 950.169 763.78 Z " fill="url(#_lgradient_16)"/><linearGradient id="_lgradient_17" x1="0.35688802506600237" y1="1.199444014844072" x2="0.4207086172101626" y2="0.19772071207700437" gradientTransform="matrix(116.058,0,0,109.519,622.611,654.262)" gradientUnits="userSpaceOnUse"><stop offset="0%" stop-opacity="1" style="stop-color:rgb(0,255,13)"/><stop offset="98.26086956521739%" stop-opacity="1" style="stop-color:rgb(242,242,242)"/></linearGradient><path d=" M 636.658 763.78 L 622.611 701.006 L 647.884 732.361 L 637.322 655.014 L 665.861 733.373 L 665.861 654.262 L 687.177 732.295 L 714.934 656.074 L 701.124 731.942 L 738.669 700.894 L 715.971 747.648 L 701.597 763.78 L 636.658 763.78 Z " fill="url(#_lgradient_17)"/><path d=" M 16.868 772.2 L 204.253 743.104 L 410.887 725.124 L 570.058 725.124 L 746.982 725.124 L 947.04 743.104 L 1127.865 772.104 C 1138.48 773.807 1147.099 780.435 1147.099 786.898 L 1147.099 786.898 C 1147.099 793.36 1143.388 806.507 1138.818 816.239 L 1038.427 1030 L 536.395 1030 L 55.792 1008.111 L 31.492 920.597 L 2.831 817.376 C -0.046 807.017 -2.381 793.36 -2.381 786.898 L -2.381 786.898 C -2.381 780.435 6.244 773.85 16.868 772.2 Z " fill="rgb(255,233,185)"/><ellipse vector-effect="non-scaling-stroke" cx="303.99795595056713" cy="789.9283240216092" rx="25.59803273481606" ry="26.147979037269465" fill="rgb(234,215,173)" fill-opacity="0.73"/><ellipse vector-effect="non-scaling-stroke" cx="648.2093387565832" cy="814.8701870107199" rx="25.598032734816115" ry="26.147979037269465" fill="rgb(234,215,173)" fill-opacity="0.73"/><ellipse vector-effect="non-scaling-stroke" cx="723.6418740719088" cy="860.0016813489377" rx="43.00153636177788" ry="43.92537829006051" fill="rgb(234,215,173)" fill-opacity="0.73"/><ellipse vector-effect="non-scaling-stroke" cx="348.03430109620336" cy="807.5566477679191" rx="18.438312410819776" ry="18.834439794469063" fill="rgb(234,215,173)" fill-opacity="0.73"/><ellipse vector-effect="non-scaling-stroke" cx="616.4535920017353" cy="859.8526058424577" rx="18.438312410819776" ry="18.834439794469063" fill="rgb(234,215,173)" fill-opacity="0.73"/></g></g></svg>